<?xml version="1.0" encoding="UTF-8"?>
<!DOCTYPE svg PUBLIC "-//W3C//DTD SVG 1.1//EN" "http://www.w3.org/Graphics/SVG/1.1/DTD/svg11.dtd">
<!-- Creator: CorelDRAW -->
<svg xmlns="http://www.w3.org/2000/svg" xml:space="preserve" width="91.44mm" height="91.44mm" version="1.1" style="shape-rendering:geometricPrecision; text-rendering:geometricPrecision; image-rendering:optimizeQuality; fill-rule:evenodd; clip-rule:evenodd"
viewBox="0 0 9135.51 9135.51"
 xmlns:xlink="http://www.w3.org/1999/xlink"
 xmlns:xodm="http://www.corel.com/coreldraw/odm/2003">
 <defs>
  <style type="text/css">
   <![CDATA[
    .fil0 {fill:#1E1E1E}
    .fil2 {fill:#F96F0C;fill-rule:nonzero}
    .fil1 {fill:white;fill-rule:nonzero}
   ]]>
  </style>
 </defs>
 <g id="Camada_x0020_1">
  <metadata id="CorelCorpID_0Corel-Layer"/>
  <rect class="fil0" x="-0.02" y="-0.02" width="9135.51" height="9135.51"/>
  <g id="_2795591415792">
   <path class="fil1" d="M3047.42 4865.13c2.45,4.94 8.44,6.97 13.38,4.53 1.96,-0.98 3.54,-2.56 4.52,-4.53l454.98 -937.22c1.1,-2.35 2.98,-3.6 5.62,-3.75 67.02,-1.93 134.1,-1.87 201.25,0.21 1.17,-0.1 2.13,0.86 2.17,2.11 0,0.41 -0.08,0.85 -0.29,1.23 -304.71,607.33 -499.87,998.89 -585.48,1174.7 -21.02,43.08 -49.74,87.83 -99.49,84.71 -32.74,-2.09 -58.84,-22.55 -78.26,-61.4 -232.68,-467.2 -430.48,-866.18 -593.38,-1196.97 -0.92,-1.86 -0.17,-4.11 1.68,-5.02 0.52,-0.25 1.08,-0.4 1.65,-0.4l207.3 0c3.31,-0.02 6.33,1.86 7.7,4.79l456.65 937.01z"/>
   <path class="fil1" d="M2089.17 4508.4c0,-197.71 -160.27,-358 -357.99,-358l0 0 -248.92 0c-197.71,0 -357.99,160.29 -357.99,358l0 0 0 94.48c0,197.71 160.28,358 357.99,358l248.92 0c197.72,0 357.99,-160.29 357.99,-358l0 -94.48zm-483.07 -579.65c102.14,0 161.87,0.69 179.2,2.08 326.77,26.86 500.76,313.87 501.18,620.86 0.41,307.2 -172.75,594.63 -499.52,622.52 -17.34,1.39 -77.01,2.14 -178.99,2.29 -102.14,0.14 -161.87,-0.48 -179.2,-1.88 -326.77,-26.85 -500.76,-313.86 -501.18,-621.06 -0.42,-306.99 172.75,-594.63 499.53,-622.31 17.33,-1.4 77,-2.23 178.98,-2.5z"/>
   <path class="fil1" d="M4121.17 4150.2c-5.56,0 -8.33,2.77 -8.33,8.32 -0.14,232.69 -0.2,465.03 -0.2,697.03 0,45.79 16.79,76.86 50.36,93.24 17.21,8.47 48.29,12.64 93.24,12.49 355.76,-0.56 604.56,-0.41 746.37,0.42 6.78,0 12.28,5.49 12.28,12.28l0 195.23c0,5.74 -4.75,10.41 -10.62,10.41 -268.22,0.68 -548.07,0.76 -839.6,0.2 -82.98,-0.15 -141.74,-10.61 -176.29,-31.42 -61.19,-36.64 -91.85,-97.68 -92,-183.16 -0.68,-294.3 -0.83,-594.91 -0.41,-901.83 0,-40.23 5.55,-69.31 16.65,-87.21 18.31,-29.56 47.72,-44.34 88.25,-44.34 347.43,-0.26 680.94,-0.26 1000.49,0 8.05,0 12.07,4.02 12.07,12.08l0 197.94c0,4.6 -3.73,8.32 -8.32,8.32l0 0 -883.94 0z"/>
   <path class="fil1" d="M5469.66 4168.31l0 1035.46c0,3.46 -2.71,6.24 -6.03,6.24l-193.36 0c-4.37,0 -7.91,-3.65 -7.91,-8.12l0 -1168.24c0,-55.76 45.19,-100.94 100.95,-100.94l0.21 0c11.1,0 209.12,-0.21 594.01,-0.63 170.52,-0.14 283.48,10.06 338.84,30.6 124.61,46.06 203.77,144.65 237.48,295.75 48.5,215.63 -4.16,458.1 -216.04,558.21 -3.7,1.84 -5.29,6.26 -3.52,9.89 0.32,0.64 0.73,1.25 1.23,1.77l336.13 373.8c1.84,1.9 1.8,4.94 -0.1,6.76 -0.91,0.9 -2.16,1.38 -3.43,1.36l-269.95 0c-7.39,0 -14.41,-3.29 -19.15,-8.95l-283.06 -337.59c-4.9,-5.8 -12.06,-9.16 -19.56,-9.16l-485.58 0c-6.92,0 -10.4,-3.39 -10.4,-10.2l0 -176.08c0,-6.09 3.12,-9.16 9.36,-9.16 240.34,0.56 408.71,0.63 505.14,0.21 67.44,-0.41 116.34,-7.28 146.72,-20.6 103.45,-45.17 127.8,-154.23 122.39,-261.21 -6.86,-133 -77.84,-220 -214.79,-220.21 -122.11,-0.27 -338.36,-0.21 -648.75,0.21 -5.97,0 -10.82,4.85 -10.82,10.82z"/>
   <path class="fil2" d="M7310.37 4595.19c4.31,-4.77 4.39,-12.06 0.21,-17.07l-500.98 -596.71c-0.14,-0.15 -0.28,-0.36 -0.41,-0.63 -4.44,-8.59 -3.75,-14.93 2.08,-18.94 1.94,-1.25 4.65,-1.87 8.12,-1.87 65.77,1.1 163.53,1.04 293.26,-0.21 8.34,0 16.29,3.56 21.85,9.78l371.72 413.15c3.86,4.44 10.61,4.83 15.11,0.89 0.34,-0.29 0.63,-0.58 0.92,-0.89l369.65 -414.39c4.72,-5.41 10.67,-8.12 17.9,-8.12l292 0c6.81,0 7.97,2.57 3.55,7.71l-541.15 606.49c-3.25,3.88 -3.34,9.41 -0.21,13.12l513.88 612.95c2.54,2.98 2.16,7.44 -0.81,9.96 -1.3,1.11 -2.92,1.69 -4.61,1.69l-291.17 0c-7.41,0 -14.47,-3.27 -19.36,-8.95l-361.52 -431.46c-4.19,-5.06 -11.66,-5.75 -16.71,-1.58 -0.5,0.42 -0.96,0.88 -1.4,1.38l-384.41 430.83c-5.93,6.62 -14.35,10.41 -23.11,10.41l-295.76 0c-4.83,-0.04 -8.72,-3.98 -8.68,-8.8 0.03,-2.13 0.82,-4.19 2.24,-5.77l537.81 -602.95z"/>
   <path class="fil1" d="M4966.18 4629.32c0,5.19 -4.19,9.37 -9.37,9.37l-743.45 0c-5.18,0 -9.36,-4.19 -9.36,-9.37l0 0 0 -166.51c0,-5.18 4.19,-9.36 9.36,-9.36l743.45 0c5.19,0 9.37,4.19 9.37,9.36l0 166.51z"/>
  </g>
 </g>
</svg>
